<svg width="44" height="43" viewBox="0 0 44 43" fill="none" xmlns="http://www.w3.org/2000/svg">
<path fill-rule="evenodd" clip-rule="evenodd" d="M7.17192 42.2211C5.48667 42.2211 3.88583 41.5518 2.67993 40.361C1.47403 39.1701 0.819824 37.5542 0.819824 35.869V6.35473C0.819824 4.6695 1.4891 3.06867 2.67993 1.86278C3.87076 0.656883 5.48667 0.00268555 7.17192 0.00268555H36.6864C38.3716 0.00268555 39.9725 0.671957 41.1784 1.86278C42.3843 3.0536 43.0385 4.6695 43.0385 6.35473V35.869C43.0385 37.5542 42.3692 39.1551 41.1784 40.361C39.9875 41.5669 38.3716 42.2211 36.6864 42.2211H7.17192ZM32.9481 24.404H28.4862V39.146H36.6864C37.1171 39.1472 37.5437 39.0633 37.9419 38.899C38.34 38.7347 38.7017 38.4934 39.0063 38.1889C39.3108 37.8843 39.5521 37.5226 39.7164 37.1245C39.8807 36.7263 39.9646 36.2997 39.9634 35.869V6.35473C39.9638 5.92428 39.8793 5.49797 39.7148 5.1002C39.5502 4.70244 39.3089 4.34103 39.0045 4.03665C38.7001 3.73227 38.3387 3.4909 37.9409 3.32636C37.5432 3.16181 37.1168 3.07732 36.6864 3.07772H7.17192C6.30353 3.0801 5.47138 3.42613 4.85734 4.04017C4.24329 4.65421 3.89726 5.48635 3.89488 6.35473V35.869C3.89726 36.7374 4.24329 37.5695 4.85734 38.1836C5.47138 38.7976 6.30353 39.1436 7.17192 39.146H23.5722V24.404H18.6581V19.4899H23.5722V16.849C23.5722 11.8446 26.0081 9.64381 30.1745 9.64381C32.1251 9.64381 33.1742 9.78551 33.6716 9.85484L33.7018 9.85786V14.5608H30.8679C29.4389 14.5608 28.7636 15.1728 28.5586 16.4059C28.5094 16.7271 28.4862 17.0517 28.4893 17.3766V19.4779H33.6445L32.9421 24.3919L32.9481 24.404Z" fill="#ED6811"/>
</svg>
