<svg width="43" height="43" viewBox="0 0 43 43" fill="none" xmlns="http://www.w3.org/2000/svg">
<path d="M21.3504 0.163086C15.5564 0.163086 14.8279 0.189774 12.5514 0.291188C10.2749 0.397939 8.72431 0.755556 7.36589 1.28397C5.94034 1.8186 4.64943 2.65946 3.5842 3.74726C2.49639 4.81248 1.65553 6.10338 1.1209 7.52893C0.592474 8.88467 0.232186 10.4379 0.128102 12.7064C0.026688 14.9882 0 15.7141 0 21.516C0 27.3126 0.026688 28.0385 0.128102 30.315C0.234855 32.5888 0.592474 34.1394 1.1209 35.4978C1.668 36.9016 2.39658 38.0918 3.5842 39.2794C4.76915 40.467 5.95943 41.1983 7.36322 41.7427C8.72431 42.2711 10.2722 42.6314 12.546 42.7355C14.8252 42.8369 15.5511 42.8636 21.3504 42.8636C27.1497 42.8636 27.873 42.8369 30.1521 42.7355C32.4233 42.6288 33.9792 42.2711 35.3376 41.7427C36.7622 41.2078 38.0522 40.3669 39.1166 39.2794C40.3042 38.0918 41.0328 36.9016 41.5799 35.4978C42.1057 34.1394 42.466 32.5888 42.5727 30.315C42.6741 28.0385 42.7008 27.3126 42.7008 21.5133C42.7008 15.7141 42.6741 14.9882 42.5727 12.709C42.466 10.4379 42.1057 8.88467 41.5799 7.52893C41.0453 6.10338 40.2044 4.81248 39.1166 3.74726C38.0514 2.65946 36.7605 1.8186 35.3349 1.28397C33.9738 0.755556 32.4206 0.39527 30.1494 0.291188C27.8703 0.189774 27.147 0.163086 21.3451 0.163086H21.3504ZM19.4369 4.01147H21.3531C27.0536 4.01147 27.7288 4.03015 29.9786 4.13424C32.0603 4.22764 33.1919 4.57725 33.9445 4.86815C34.9399 5.25512 35.6525 5.71949 36.3998 6.46675C37.147 7.21401 37.6087 7.92391 37.9957 8.92203C38.2893 9.67196 38.6362 10.8035 38.7296 12.8852C38.8337 15.135 38.8551 15.8102 38.8551 21.508C38.8551 27.2059 38.8337 27.8837 38.7296 30.1335C38.6362 32.2152 38.2866 33.3441 37.9957 34.0967C37.651 35.0225 37.105 35.8602 36.3971 36.5493C35.6498 37.2965 34.9399 37.7582 33.9418 38.1452C33.1946 38.4388 32.063 38.7857 29.9786 38.8818C27.7288 38.9832 27.0536 39.0072 21.3531 39.0072C15.6525 39.0072 14.9746 38.9832 12.7248 38.8818C10.6432 38.7857 9.51428 38.4388 8.76167 38.1452C7.83516 37.8016 6.99652 37.2565 6.30638 36.5493C5.59721 35.8597 5.05025 35.021 4.7051 34.094C4.4142 33.3441 4.06458 32.2125 3.97118 30.1308C3.86976 27.8811 3.84841 27.2059 3.84841 21.5027C3.84841 15.7995 3.86976 15.1296 3.97118 12.8798C4.06725 10.7982 4.4142 9.66662 4.70777 8.91403C5.09474 7.91857 5.55911 7.206 6.30638 6.45875C7.05364 5.71149 7.76354 5.24979 8.76167 4.86281C9.51428 4.56925 10.6432 4.2223 12.7248 4.12623C14.6944 4.03549 15.4577 4.0088 19.4369 4.00613V4.01147ZM32.7489 7.55561C32.4124 7.55561 32.0792 7.62188 31.7684 7.75064C31.4576 7.87939 31.1751 8.06811 30.9372 8.30602C30.6993 8.54392 30.5106 8.82636 30.3818 9.1372C30.2531 9.44804 30.1868 9.7812 30.1868 10.1176C30.1868 10.4541 30.2531 10.7873 30.3818 11.0981C30.5106 11.4089 30.6993 11.6914 30.9372 11.9293C31.1751 12.1672 31.4576 12.3559 31.7684 12.4847C32.0792 12.6134 32.4124 12.6797 32.7489 12.6797C33.4284 12.6797 34.08 12.4098 34.5605 11.9293C35.041 11.4488 35.3109 10.7971 35.3109 10.1176C35.3109 9.43815 35.041 8.78649 34.5605 8.30602C34.08 7.82554 33.4284 7.55561 32.7489 7.55561ZM21.3531 10.55C19.8988 10.5273 18.4545 10.7941 17.1043 11.335C15.7541 11.8758 14.525 12.6799 13.4885 13.7003C12.4521 14.7207 11.6289 15.9371 11.0671 17.2787C10.5053 18.6203 10.2159 20.0602 10.2159 21.5147C10.2159 22.9692 10.5053 24.4091 11.0671 25.7507C11.6289 27.0923 12.4521 28.3087 13.4885 29.3291C14.525 30.3495 15.7541 31.1535 17.1043 31.6944C18.4545 32.2352 19.8988 32.5021 21.3531 32.4794C24.2315 32.4345 26.9768 31.2595 28.9965 29.2081C31.0161 27.1567 32.1481 24.3934 32.1481 21.5147C32.1481 18.6359 31.0161 15.8726 28.9965 13.8212C26.9768 11.7699 24.2315 10.5949 21.3531 10.55ZM21.3531 14.3957C22.2878 14.3957 23.2133 14.5798 24.0769 14.9375C24.9405 15.2952 25.7251 15.8195 26.386 16.4804C27.047 17.1413 27.5713 17.926 27.929 18.7895C28.2867 19.6531 28.4708 20.5786 28.4708 21.5133C28.4708 22.4481 28.2867 23.3736 27.929 24.2372C27.5713 25.1007 27.047 25.8853 26.386 26.5463C25.7251 27.2072 24.9405 27.7315 24.0769 28.0892C23.2133 28.4469 22.2878 28.631 21.3531 28.631C19.4654 28.631 17.6549 27.8811 16.3201 26.5463C14.9853 25.2115 14.2354 23.4011 14.2354 21.5133C14.2354 19.6256 14.9853 17.8152 16.3201 16.4804C17.6549 15.1456 19.4654 14.3957 21.3531 14.3957Z" fill="#ED6811"/>
</svg>
